<svg width="66" height="44" viewBox="0 0 66 44" fill="none" xmlns="http://www.w3.org/2000/svg">
<path fill-rule="evenodd" clip-rule="evenodd" d="M33 41.0568C29.7641 42.9287 26.0072 44 22 44C9.84974 44 0 34.1503 0 22C0 9.84974 9.84974 0 22 0C26.0072 0 29.7641 1.07134 33 2.94321C36.2359 1.07134 39.9928 0 44 0C56.1503 0 66 9.84974 66 22C66 34.1503 56.1503 44 44 44C39.9928 44 36.2359 42.9287 33 41.0568ZM2 22C2 10.9543 10.9543 2 22 2C25.2745 2 28.3651 2.78691 31.0932 4.18193C25.5832 8.1801 22 14.6716 22 22C22 29.3284 25.5832 35.8199 31.0932 39.8181C28.3651 41.2131 25.2745 42 22 42C10.9543 42 2 33.0457 2 22ZM34.9068 4.18193C37.6349 2.78691 40.7255 2 44 2C55.0457 2 64 10.9543 64 22C64 33.0457 55.0457 42 44 42C40.7255 42 37.6349 41.2131 34.9068 39.8181C40.4168 35.8199 44 29.3284 44 22C44 14.6716 40.4168 8.1801 34.9068 4.18193ZM33 5.29405C38.4222 8.87151 42 15.0179 42 22C42 28.9821 38.4222 35.1285 33 38.706C27.5778 35.1285 24 28.9821 24 22C24 15.0179 27.5778 8.87151 33 5.29405Z" fill="black"/>
</svg>
